<?xml version="1.0" encoding="iso-8859-1"?>
<!-- Generator: Adobe Illustrator 19.0.0, SVG Export Plug-In . SVG Version: 6.00 Build 0)  -->
<svg version="1.1" id="Layer_1" xmlns="http://www.w3.org/2000/svg" xmlns:xlink="http://www.w3.org/1999/xlink" x="0px" y="0px"
	 viewBox="-710 -200 1920 1000" style="enable-background:new 0 0 1920 1000;" xml:space="preserve">
<path style="fill:#B9785F;" d="M485.536,441.246H291.469v-26.464c0-4.872,3.95-8.821,8.821-8.821h176.425
	c4.872,0,8.821,3.95,8.821,8.821V441.246z"/>
<path style="fill:#AA6955;" d="M503.179,467.71H273.826v-17.643c0-9.744,7.898-17.643,17.643-17.643h194.068
	c9.744,0,17.643,7.898,17.643,17.643V467.71z"/>
<path style="fill:#FFC36E;" d="M503.179,476.531H273.826c-4.872,0-8.821-3.95-8.821-8.821l0,0c0-4.872,3.95-8.821,8.821-8.821
	h229.353c4.872,0,8.821,3.95,8.821,8.821l0,0C512,472.582,508.05,476.531,503.179,476.531z"/>
<g>
</g>
<g>
</g>
<g>
</g>
<g>
</g>
<g>
</g>
<g>
</g>
<g>
</g>
<g>
</g>
<g>
</g>
<g>
</g>
<g>
</g>
<g>
</g>
<g>
</g>
<g>
</g>
<g>
</g>
</svg>
